<?xml version="1.0" encoding="UTF-8"?>
<svg version="1.1" viewBox="0 -54.6429 21.4286 29.4643" xmlns="http://www.w3.org/2000/svg" xmlns:xlink="http://www.w3.org/1999/xlink">
    <!--Generated by IJSVG (https://github.com/curthard89/IJSVG)-->
    <path fill="#000000" d="M21.4286,17.1429c0,0.446429 -0.15625,0.825893 -0.46875,1.13839c-0.3125,0.3125 -0.691964,0.46875 -1.13839,0.46875c-0.569197,0 -1.01562,-0.239955 -1.33929,-0.719866l-3.80022,-5.70871h-0.753349v2.20982l4.13504,6.88058c0.100446,0.167411 0.15067,0.351563 0.15067,0.552456c0,0.290178 -0.106027,0.541294 -0.318081,0.753348c-0.212053,0.212053 -0.463169,0.31808 -0.753348,0.31808h-3.21429v4.55357c0,0.513392 -0.184151,0.954241 -0.552455,1.32254c-0.368304,0.368304 -0.809152,0.552456 -1.32254,0.552456h-2.67857c-0.513393,0 -0.954241,-0.184152 -1.32254,-0.552456c-0.368303,-0.368303 -0.552455,-0.809152 -0.552455,-1.32254v-4.55357h-3.21429c-0.290178,0 -0.541294,-0.106027 -0.753348,-0.31808c-0.212054,-0.212054 -0.31808,-0.46317 -0.31808,-0.753348c0,-0.200893 0.050223,-0.385045 0.150669,-0.552456l4.13504,-6.88058v-2.20982h-0.753348l-3.80022,5.70871c-0.323661,0.479911 -0.77009,0.719866 -1.33929,0.719866c-0.446429,0 -0.825893,-0.15625 -1.13839,-0.46875c-0.3125,-0.3125 -0.46875,-0.691964 -0.46875,-1.13839c0,-0.323661 0.089286,-0.61942 0.267857,-0.887277l4.28571,-6.42857c0.814733,-1.1942 1.79688,-1.79129 2.94643,-1.79129h6.42857c1.14955,0 2.1317,0.597098 2.94643,1.79129l4.28571,6.42857c0.178572,0.267857 0.267857,0.563616 0.267857,0.887277Zm-6.96429,-13.3929c0,1.03795 -0.365514,1.92243 -1.09654,2.65346c-0.731027,0.731026 -1.61551,1.09654 -2.65346,1.09654c-1.03795,0 -1.92243,-0.365514 -2.65346,-1.09654c-0.731027,-0.731027 -1.09654,-1.61551 -1.09654,-2.65346c0,-1.03795 0.365513,-1.92243 1.09654,-2.65346c0.731027,-0.731027 1.61551,-1.09654 2.65346,-1.09654c1.03795,0 1.92243,0.365513 2.65346,1.09654c0.731026,0.731027 1.09654,1.61551 1.09654,2.65346Z" transform="translate(0, -54.6429)"></path>
</svg>