<?xml version="1.0" encoding="UTF-8"?>
<svg version="1.1" viewBox="0 -54.6429 17.1429 29.4643" xmlns="http://www.w3.org/2000/svg" xmlns:xlink="http://www.w3.org/1999/xlink">
    <!--Generated by IJSVG (https://github.com/curthard89/IJSVG)-->
    <path fill="#000000" d="M17.1429,11.25v6.96429c0,0.446428 -0.15625,0.825892 -0.46875,1.13839c-0.3125,0.3125 -0.691964,0.46875 -1.13839,0.46875c-0.446428,0 -0.825893,-0.15625 -1.13839,-0.46875c-0.3125,-0.3125 -0.46875,-0.691964 -0.46875,-1.13839v-5.89286h-1.07143v15.2679c0,0.513392 -0.184152,0.954241 -0.552455,1.32254c-0.368304,0.368304 -0.809152,0.552456 -1.32254,0.552456c-0.513393,0 -0.954241,-0.184152 -1.32254,-0.552456c-0.368303,-0.368303 -0.552455,-0.809152 -0.552455,-1.32254v-7.76786h-1.07143v7.76786c0,0.513392 -0.184152,0.954241 -0.552455,1.32254c-0.368304,0.368304 -0.809152,0.552456 -1.32255,0.552456c-0.513393,0 -0.954241,-0.184152 -1.32254,-0.552456c-0.368304,-0.368303 -0.552456,-0.809152 -0.552456,-1.32254v-15.2679h-1.07143v5.89286c0,0.446428 -0.15625,0.825892 -0.46875,1.13839c-0.3125,0.3125 -0.691965,0.46875 -1.13839,0.46875c-0.446429,0 -0.825893,-0.15625 -1.13839,-0.46875c-0.3125,-0.3125 -0.46875,-0.691964 -0.46875,-1.13839v-6.96429c0,-0.892857 0.3125,-1.65179 0.9375,-2.27679c0.625,-0.625 1.38393,-0.9375 2.27679,-0.9375h10.7143c0.892858,0 1.65179,0.3125 2.27679,0.9375c0.625,0.625 0.9375,1.38393 0.9375,2.27679Zm-4.82143,-7.5c0,1.03795 -0.365514,1.92243 -1.09654,2.65346c-0.731026,0.731026 -1.61551,1.09654 -2.65346,1.09654c-1.03795,0 -1.92243,-0.365514 -2.65346,-1.09654c-0.731027,-0.731027 -1.09654,-1.61551 -1.09654,-2.65346c0,-1.03795 0.365513,-1.92243 1.09654,-2.65346c0.731027,-0.731027 1.61551,-1.09654 2.65346,-1.09654c1.03795,0 1.92243,0.365513 2.65346,1.09654c0.731027,0.731027 1.09654,1.61551 1.09654,2.65346Z" transform="translate(0, -54.6429)"></path>
</svg>